<?xml version="1.0" standalone="no"?><!DOCTYPE svg PUBLIC "-//W3C//DTD SVG 1.1//EN" "http://www.w3.org/Graphics/SVG/1.1/DTD/svg11.dtd"><svg t="1683613749896" class="icon" viewBox="0 0 1024 1024" version="1.1" xmlns="http://www.w3.org/2000/svg" p-id="18664" xmlns:xlink="http://www.w3.org/1999/xlink" width="128" height="128"><path d="M812.3 531c35-0.8 66.3 15.2 86.5 40.6 6.5 8.2 16.4 13 26.9 13 18.9 0 34.3-15.4 34.3-34.3V359.4c0-23.7-19.2-42.9-42.9-42.9H726.2c-18.9 0-34.3-15.4-34.3-34.3 0-10.5 4.8-20.4 13-26.9 25.3-20.1 41.3-51.4 40.6-86.5-1.3-57.4-48.3-104-105.7-104.8-60-0.8-108.8 47.5-108.8 107.3 0 34 15.8 64.3 40.5 84 8.2 6.6 13.1 16.4 13.1 27 0 18.9-15.4 34.3-34.3 34.3H359.4c-23.7 0-42.9 19.2-42.9 42.9v190.9c0 18.9-15.4 34.3-34.3 34.3-10.5 0-20.4-4.8-26.9-13-20.1-25.3-51.4-41.3-86.5-40.6-57.4 1.3-104 48.3-104.8 105.7-0.8 59.9 47.5 108.8 107.2 108.8 34 0 64.3-15.8 84-40.5 6.6-8.2 16.4-13.1 27-13.1 18.9 0 34.3 15.4 34.3 34.3v190.9c0 23.7 19.2 42.9 42.9 42.9h190.9c18.9 0 34.3-15.4 34.3-34.3 0-10.5-4.8-20.4-13-26.9-25.3-20.1-41.3-51.4-40.6-86.5 1.3-57.4 48.3-104 105.7-104.8 59.9-0.8 108.8 47.5 108.8 107.2 0 34-15.8 64.3-40.5 84-8.2 6.6-13.1 16.4-13.1 27 0 18.9 15.4 34.3 34.3 34.3h190.9c23.7 0 42.9-19.2 42.9-42.9v-191c0-18.9-15.4-34.3-34.3-34.3-10.5 0-20.4 4.9-27 13.1-19.6 24.7-50 40.5-84 40.5-59.7 0-108.1-48.8-107.2-108.8 0.8-57.4 47.4-104.4 104.8-105.7z" fill="#FAFAFA" p-id="18665" data-spm-anchor-id="a313x.7781069.0.i49" class="selected"></path></svg>