<?xml version="1.0" standalone="no"?><!DOCTYPE svg PUBLIC "-//W3C//DTD SVG 1.1//EN" "http://www.w3.org/Graphics/SVG/1.1/DTD/svg11.dtd"><svg t="1683613102768" class="icon" viewBox="0 0 1024 1024" version="1.1" xmlns="http://www.w3.org/2000/svg" p-id="4624" xmlns:xlink="http://www.w3.org/1999/xlink" width="128" height="128"><path d="M837.818 42.667c-77.119 0-139.636 62.517-139.636 139.636 0 14.701 2.278 28.868 6.49 42.176L314.516 441.232l22.604 40.688 388.84-216.022c25.467 34.022 66.091 56.041 111.859 56.041 77.119 0 139.636-62.517 139.636-139.636S914.937 42.667 837.818 42.667z m0 232.727c-51.331 0-93.091-41.76-93.091-93.091s41.76-93.091 93.091-93.091 93.091 41.76 93.091 93.091-41.76 93.091-93.091 93.091z" p-id="4625" fill="#FAFAFA"></path><path d="M742.904 605.324c-70.034 0-131.117 38.297-163.468 95.088L346.045 573.377a151.925 151.925 0 0 0 3.047-30.347c0-51.73-25.973-97.388-65.582-124.666l78.708-184.741c19.678-2.908 38.628-11.928 53.775-27.074 37.49-37.49 37.49-98.274 0-135.765-18.745-18.745-43.314-28.118-67.882-28.118s-49.137 9.373-67.882 28.118c-37.49 37.49-37.49 98.274 0 135.765a95.588 95.588 0 0 0 34.059 21.956L240.26 397.802a151.31 151.31 0 0 0-42.442-6.045c-83.545 0-151.273 67.727-151.273 151.273 0 83.546 67.728 151.273 151.273 151.273 56.553 0 105.851-31.039 131.807-77.006l231.932 126.319a188.16 188.16 0 0 0-6.657 49.713c0 103.832 84.173 188.005 188.005 188.005S930.91 897.161 930.91 793.329s-84.174-188.005-188.006-188.005zM354.906 234.667l-0.467-0.233c0.305-0.02 0.61-0.043 0.916-0.066l-0.449 0.299z m-41.766-130.97c9.341-9.341 21.76-14.485 34.97-14.485 13.21 0 25.629 5.144 34.969 14.485 19.282 19.282 19.282 50.657 0 69.939-9.341 9.341-21.76 14.485-34.97 14.485-13.21 0-25.629-5.144-34.969-14.485-19.282-19.282-19.282-50.657 0-69.939zM197.818 647.758c-57.747 0-104.728-46.981-104.728-104.727s46.98-104.727 104.728-104.727 104.728 46.981 104.728 104.727-46.981 104.727-104.728 104.727z m645.113 245.597c-26.718 26.718-62.242 41.432-100.027 41.432s-73.309-14.714-100.027-41.432c-26.718-26.718-41.433-62.242-41.433-100.027s14.714-73.309 41.433-100.027c26.718-26.718 62.242-41.432 100.027-41.432s73.309 14.714 100.027 41.432c26.718 26.718 41.432 62.242 41.432 100.027s-14.714 73.309-41.432 100.027z" p-id="4626" fill="#FAFAFA"></path></svg>