<?xml version="1.0" standalone="no"?><!DOCTYPE svg PUBLIC "-//W3C//DTD SVG 1.1//EN" "http://www.w3.org/Graphics/SVG/1.1/DTD/svg11.dtd"><svg t="1683613439455" class="icon" viewBox="0 0 1024 1024" version="1.1" xmlns="http://www.w3.org/2000/svg" p-id="14214" xmlns:xlink="http://www.w3.org/1999/xlink" width="128" height="128"><path d="M1024 1024V716.79S819.19 819.19 819.19 614.4C819.19 409.59 1024 512 1024 512V204.8H716.8S819.19 0 614.4 0C409.59 0 512 204.8 512 204.8H204.79v307.21S0 409.59 0 614.4c0 204.8 204.79 102.41 204.79 102.41V1024H512S409.59 819.21 614.4 819.2c204.8 0 102.41 204.8 102.41 204.8H1024z" fill="#FAFAFA" p-id="14215" data-spm-anchor-id="a313x.7781069.0.i33" class=""></path><path d="M747.18 347.45a110.61 114.68 0 1 0 221.22 0 110.61 114.68 0 1 0-221.22 0Z" fill="#3D444B" p-id="14216" data-spm-anchor-id="a313x.7781069.0.i35" class="selected"></path><path d="M42.58 615.04a81.93 84.95 0 1 0 163.86 0 81.93 84.95 0 1 0-163.86 0Z" fill="#3D444B" p-id="14217" data-spm-anchor-id="a313x.7781069.0.i36" class="selected"></path><path d="M312.95 857.14a69.64 72.21 0 1 0 139.28 0 69.64 72.21 0 1 0-139.28 0Z" fill="#3D444B" p-id="14218" data-spm-anchor-id="a313x.7781069.0.i40" class="selected"></path><path d="M583.33 674.5a57.35 59.46 0 1 0 114.7 0 57.35 59.46 0 1 0-114.7 0Z" fill="#3D444B" p-id="14219" data-spm-anchor-id="a313x.7781069.0.i42" class="selected"></path><path d="M829.12 885.1a47.44 49.19 0 1 0 94.88 0 47.44 49.19 0 1 0-94.88 0Z" fill="#3D444B" p-id="14220" data-spm-anchor-id="a313x.7781069.0.i44" class="selected"></path><path d="M561.98 136.65a47.44 49.19 0 1 0 94.88 0 47.44 49.19 0 1 0-94.88 0Z" fill="#3D444B" p-id="14221" data-spm-anchor-id="a313x.7781069.0.i38" class="selected"></path><path d="M117.077 615.047L866.7 326.891l8.51 22.14-749.622 288.156z" fill="#3D444B" p-id="14222" data-spm-anchor-id="a313x.7781069.0.i34" class="selected"></path><path d="M137.52 583.194l251.026 270.741-10.222 9.478-251.026-270.742z" fill="#3D444B" p-id="14223" data-spm-anchor-id="a313x.7781069.0.i41" class="selected"></path><path d="M674.151 660.626l-301.275 213.44-4.03-5.687 301.276-213.44z" fill="#3D444B" p-id="14224" data-spm-anchor-id="a313x.7781069.0.i43" class="selected"></path><path d="M866.38 885.595L644.435 663.65l3.295-3.295L869.675 882.3zM829.306 350.069L599.263 136.505l3.171-3.415 230.043 213.564z" fill="#3D444B" p-id="14225" data-spm-anchor-id="a313x.7781069.0.i39" class="selected"></path></svg>