<?xml version="1.0" standalone="no"?><!DOCTYPE svg PUBLIC "-//W3C//DTD SVG 1.1//EN" "http://www.w3.org/Graphics/SVG/1.1/DTD/svg11.dtd"><svg t="1683365606859" class="icon" viewBox="0 0 1024 1024" version="1.1" xmlns="http://www.w3.org/2000/svg" p-id="2490" data-darkreader-inline-fill="" xmlns:xlink="http://www.w3.org/1999/xlink" width="100" height="100"><path d="M512 853.333333c-188.522667 0-341.333333-152.810667-341.333333-341.333333S323.477333 170.666667 512 170.666667s341.333333 152.810667 341.333333 341.333333-152.810667 341.333333-341.333333 341.333333z m0-64c153.173333 0 277.333333-124.16 277.333333-277.333333s-124.16-277.333333-277.333333-277.333333-277.333333 124.16-277.333333 277.333333 124.16 277.333333 277.333333 277.333333z" fill="#FAFAFA" p-id="2491" data-darkreader-inline-fill="" style="--darkreader-inline-fill:#1b1d1e;"></path><path d="M192 490.666667h149.333333a21.333333 21.333333 0 0 1 0 42.666666H192a21.333333 21.333333 0 0 1 0-42.666666z m490.666667 0h149.333333a21.333333 21.333333 0 0 1 0 42.666666h-149.333333a21.333333 21.333333 0 0 1 0-42.666666zM512 170.666667a21.333333 21.333333 0 0 1 21.333333 21.333333v149.333333a21.333333 21.333333 0 0 1-42.666666 0V192a21.333333 21.333333 0 0 1 21.333333-21.333333z m0 490.666666a21.333333 21.333333 0 0 1 21.333333 21.333334v149.333333a21.333333 21.333333 0 0 1-42.666666 0v-149.333333a21.333333 21.333333 0 0 1 21.333333-21.333334z" fill="#FAFAFA" p-id="2492" data-darkreader-inline-fill="" style="--darkreader-inline-fill:#1b1d1e;"></path><path d="M512 746.666667c-129.6 0-234.666667-105.066667-234.666667-234.666667s105.066667-234.666667 234.666667-234.666667 234.666667 105.066667 234.666667 234.666667-105.066667 234.666667-234.666667 234.666667z m0-170.666667a64 64 0 1 0 0-128 64 64 0 0 0 0 128z" fill="#FAFAFA" p-id="2493" data-darkreader-inline-fill="" style="--darkreader-inline-fill:#1b1d1e;"></path></svg>