<?xml version="1.0" standalone="no"?><!DOCTYPE svg PUBLIC "-//W3C//DTD SVG 1.1//EN" "http://www.w3.org/Graphics/SVG/1.1/DTD/svg11.dtd"><svg t="1680328690314" class="icon" viewBox="0 0 1024 1024" version="1.1" xmlns="http://www.w3.org/2000/svg" p-id="5516" xmlns:xlink="http://www.w3.org/1999/xlink" width="200" height="200"><path d="M640 768.042667c35.626667 26.794667 80 42.666667 128 42.666666a212.394667 212.394667 0 0 0 128-42.581333v138.496a32 32 0 0 1-46.506667 28.544l-3.84-2.346667L768 878.549333l-77.653333 54.272a32 32 0 0 1-50.005334-21.76l-0.298666-4.437333L640 768z m181.333333-639.872a117.333333 117.333333 0 0 1 117.12 110.208l0.213334 7.125333 0.042666 223.829333a214.442667 214.442667 0 0 0-64-56.746666L874.666667 245.461333a53.333333 53.333333 0 0 0-47.872-53.034666l-5.461334-0.298667H202.666667a53.333333 53.333333 0 0 0-53.077334 47.872l-0.256 5.461333v405.333334c0 27.605333 20.992 50.346667 47.872 53.077333l5.461334 0.256h380.586666c4.266667 7.338667 8.96 14.421333 14.08 21.205333v42.794667H202.666667a117.333333 117.333333 0 0 1-117.12-110.165333L85.333333 650.837333v-405.333333A117.333333 117.333333 0 0 1 195.498667 128.426667l7.168-0.213334h618.666666zM768 426.666667a170.666667 170.666667 0 1 1 0 341.376A170.666667 170.666667 0 0 1 768 426.666667z m-288 106.666666a32 32 0 0 1 4.352 63.701334L480 597.333333h-192a32 32 0 0 1-4.352-63.701333l4.352-0.298667h192z m256-234.666666a32 32 0 0 1 4.352 63.701333l-4.352 0.298667H288a32 32 0 0 1-4.352-63.701334L288 298.666667h448z" fill="#212121" p-id="5517" data-spm-anchor-id="a313x.7781069.0.i0" class="selected"></path></svg>