<?xml version="1.0" standalone="no"?><!DOCTYPE svg PUBLIC "-//W3C//DTD SVG 1.1//EN" "http://www.w3.org/Graphics/SVG/1.1/DTD/svg11.dtd"><svg t="1680327827717" class="icon" viewBox="0 0 1024 1024" version="1.1" xmlns="http://www.w3.org/2000/svg" p-id="2856" data-spm-anchor-id="a313x.7781069.0.i1" xmlns:xlink="http://www.w3.org/1999/xlink" width="200" height="200"><path d="M928 256H832V96c0-17.066667-14.933333-32-32-32h-512c-17.066667 0-32 14.933333-32 32v320H96c-17.066667 0-32 14.933333-32 32v480c0 17.066667 14.933333 32 32 32h832c17.066667 0 32-14.933333 32-32v-640c0-17.066667-14.933333-32-32-32zM384 896H128V480h256V896z m192-608V896h-128V448c0-17.066667-14.933333-32-32-32H320V128h448v128h-160c-17.066667 0-32 14.933333-32 32zM896 896H640V320h256v576z" fill="#212121" p-id="2857" data-spm-anchor-id="a313x.7781069.0.i0" class=""></path><path d="M736 416c-17.066667 0-32 14.933333-32 32s14.933333 32 32 32h64c17.066667 0 32-14.933333 32-32s-14.933333-32-32-32h-64zM800 576h-64c-17.066667 0-32 14.933333-32 32s14.933333 32 32 32h64c17.066667 0 32-14.933333 32-32s-14.933333-32-32-32zM224 576c-17.066667 0-32 14.933333-32 32s14.933333 32 32 32h64c17.066667 0 32-14.933333 32-32s-14.933333-32-32-32h-64zM288 736h-64c-17.066667 0-32 14.933333-32 32s14.933333 32 32 32h64c17.066667 0 32-14.933333 32-32s-14.933333-32-32-32zM800 736h-64c-17.066667 0-32 14.933333-32 32s14.933333 32 32 32h64c17.066667 0 32-14.933333 32-32s-14.933333-32-32-32z" fill="#212121" p-id="2858"></path></svg>